<?xml version="1.0" encoding="utf-8"?>
<svg xmlns="http://www.w3.org/2000/svg" viewBox="0 0 500 500">
  <g data-v-423bf9ae="" id="182f68dc-dc61-4196-8c0b-3cfa62258363" transform="matrix(6.641494, 0, 0, 6.812418, 29.283329, 40.673138)" stroke="none" fill="#FBE1D5" style="">
    <path d="M11 21h2l.053.053-.024.001C13.579 31.118 21.913 39 32 39c8.04 0 15.241-5.09 17.918-12.667l-1.885-.666C45.637 32.445 39.194 37 32 37c-9.007 0-16.448-7.024-16.969-16H17l-3-5-3 5zM15.972 14.399A17.017 17.017 0 0132.027 3c9.007 0 16.448 7.024 16.969 16H47l3 5 3-5h-2l-.052-.052.05-.003C50.448 8.882 42.114 1 32.027 1a19.02 19.02 0 00-17.944 12.741l1.889.658z" style="fill: rgb(13, 158, 134);"/>
    <circle cx="49" cy="41" r="1" style="fill: rgb(13, 158, 134);"/>
    <circle cx="55" cy="41" r="1" style="fill: rgb(13, 158, 134);"/>
    <path d="M57 60v-5.13a.87.87 0 00-.87-.87h-8.26a.87.87 0 00-.87.87V60c0 .366.106.705.277 1H16.723c.171-.295.277-.634.277-1v-5.13a.87.87 0 00-.87-.87H7.87a.87.87 0 00-.87.87V60c0 .366.106.705.277 1H1v2h62v-2h-6.277c.171-.295.277-.634.277-1zm-5-3a1 1 0 110 2 1 1 0 010-2zm-40 0a1 1 0 110 2 1 1 0 010-2z" style="fill: rgb(13, 158, 134);"/>
    <path d="M59 38.881A6.889 6.889 0 0052.119 32h-.238A6.889 6.889 0 0045 38.881v2.237c0 1.945.815 3.701 2.117 4.954C44.227 46.502 42 48.992 42 52v7h3v-4.13A2.873 2.873 0 0147.87 52h8.26A2.873 2.873 0 0159 54.87V59h3v-7c0-3.008-2.227-5.498-5.117-5.928A6.855 6.855 0 0059 41.119v-2.238zm-2 2.238A4.886 4.886 0 0152.119 46h-.238A4.886 4.886 0 0147 41.119v-2.133c2.859-.069 5.414-.427 6.986-.985.844.495 1.892.816 3.014.939v2.179z" style="fill: rgb(13, 158, 134);"/>
    <circle cx="9" cy="41" r="1" style="fill: rgb(13, 158, 134);"/>
    <circle cx="15" cy="41" r="1" style="fill: rgb(13, 158, 134);"/>
    <path d="M2 52v7h3v-4.13A2.873 2.873 0 017.87 52h8.26A2.873 2.873 0 0119 54.87V59h3v-7c0-3.008-2.227-5.498-5.117-5.928A6.855 6.855 0 0019 41.119v-2.237A6.89 6.89 0 0012.119 32h-.238A6.889 6.889 0 005 38.881v2.237c0 1.945.815 3.701 2.117 4.954C4.227 46.502 2 48.992 2 52zm5-10.881v-2.133c2.859-.069 5.414-.427 6.986-.985.844.495 1.892.816 3.014.939v2.179A4.886 4.886 0 0112.119 46h-.238A4.886 4.886 0 017 41.119zM32.988 21v3.015a64.93 64.93 0 014.591.225c.205-1.056.331-2.139.379-3.241h-4.97zM37.098 26.208a62.91 62.91 0 00-4.111-.193v3.005c1.009.03 1.995.101 2.935.219.471-.965.865-1.979 1.176-3.031zM37.579 15.759a64.367 64.367 0 01-4.591.225V19h4.971a22.189 22.189 0 00-.38-3.241zM26.396 24.241a64.367 64.367 0 014.591-.225V21h-4.971c.049 1.101.176 2.185.38 3.241zM32.988 13.985a62.943 62.943 0 004.111-.193 19.698 19.698 0 00-1.175-3.031c-.94.117-1.926.188-2.935.219v3.005zM30.988 29.02v-3.005a62.943 62.943 0 00-4.111.193 19.698 19.698 0 001.175 3.031c.94-.117 1.927-.188 2.936-.219zM30.988 13.985V10.98a31.094 31.094 0 01-2.935-.219c-.47.965-.863 1.979-1.175 3.031 1.326.107 2.702.172 4.11.193zM30.988 19v-3.015a64.93 64.93 0 01-4.591-.225 22.036 22.036 0 00-.379 3.241h4.97zM42.974 12.968a13.038 13.038 0 00-2.831-3.131c-.668.223-1.39.419-2.167.581.46 1.017.838 2.081 1.142 3.177a43.081 43.081 0 003.856-.627zM43.962 14.8c-1.339.306-2.809.56-4.382.753.209 1.125.332 2.278.379 3.447H45a12.918 12.918 0 00-1.038-4.2zM40.143 30.164a13.057 13.057 0 002.831-3.131 43.022 43.022 0 00-3.856-.627 21.926 21.926 0 01-1.142 3.177c.777.162 1.499.358 2.167.581zM45 21h-5.042a24.201 24.201 0 01-.379 3.447c1.573.193 3.044.447 4.382.753.57-1.302.926-2.716 1.039-4.2zM37.872 31.612c-1.735-.39-3.777-.612-5.884-.612-2.073 0-4.083.214-5.8.592A12.934 12.934 0 0032.051 33c2.095 0 4.068-.508 5.821-1.388zM23.92 30.135a19.412 19.412 0 012.08-.552 21.926 21.926 0 01-1.142-3.177c-1.333.157-2.588.36-3.745.602a13.037 13.037 0 002.807 3.127zM20.127 25.173a43.848 43.848 0 014.27-.726A24.201 24.201 0 0124.018 21h-4.916a12.9 12.9 0 001.025 4.173zM24.396 15.553a43.848 43.848 0 01-4.27-.726A12.926 12.926 0 0019.1 19h4.916c.049-1.169.171-2.322.38-3.447zM23.92 9.865a13.069 13.069 0 00-2.808 3.128c1.157.242 2.412.445 3.745.602.304-1.096.682-2.16 1.142-3.177a19.626 19.626 0 01-2.079-.553zM32.051 7c-2.112 0-4.099.515-5.863 1.408 1.717.378 3.727.592 5.8.592 2.108 0 4.149-.222 5.884-.612A12.934 12.934 0 0032.051 7z" style="fill: rgb(13, 158, 134);"/>
  </g>
</svg>