<svg data-v-423bf9ae="" xmlns="http://www.w3.org/2000/svg" viewBox="0 0 503.1372821742421 60" class="font"><!----><!----><!----><g data-v-423bf9ae="" id="8f0afc4e-075a-4e39-9205-e071813fe757" fill="black" transform="matrix(5.602240876404433,0,0,5.602240876404433,-4.76189893861698,-18.711483807928033)"><path d="M9.42 13.77L9.42 13.77Q9.00 13.87 8.81 13.87Q8.62 13.87 7.88 13.79L7.88 13.79Q6.47 12.80 2.82 5.96L2.82 5.96Q3.13 10.97 3.34 13.06L3.34 13.06L3.40 13.75Q2.80 13.92 2.21 13.92Q1.63 13.92 1.42 13.75L1.42 13.75Q1.59 12.67 1.59 8.16L1.59 8.16Q1.59 5.82 1.55 5.54Q1.50 5.26 1.42 5.15L1.42 5.15Q1.30 4.98 1.13 4.94Q0.97 4.89 0.95 4.88L0.95 4.88Q0.85 4.74 0.85 4.43Q0.85 4.12 0.87 4.00L0.87 4.00Q1.21 3.93 1.77 3.93Q2.33 3.93 3.26 4.00L3.26 4.00Q3.64 4.17 4.25 4.99Q4.86 5.82 5.40 6.75Q5.95 7.68 6.76 9.09Q7.58 10.50 8.08 11.29L8.08 11.29L7.72 4.07Q8.24 3.92 8.71 3.92Q9.18 3.92 9.42 4.12L9.42 4.12Q9.37 4.80 9.37 7.48Q9.37 10.16 9.42 13.77ZM13.17 10.85Q13.38 11.86 14.05 12.48Q14.72 13.10 15.61 13.10Q16.51 13.10 17.42 12.33L17.42 12.33Q17.76 12.56 17.83 12.87L17.83 12.87Q17.21 13.60 15.98 13.91L15.98 13.91Q15.48 14.04 14.82 14.04Q14.17 14.04 13.47 13.81Q12.78 13.57 12.23 13.12Q11.68 12.67 11.35 11.93Q11.03 11.20 11.03 10.30Q11.03 9.41 11.36 8.68Q11.69 7.95 12.23 7.49L12.23 7.49Q13.36 6.51 14.81 6.51L14.81 6.51Q16.09 6.51 17.03 7.20L17.03 7.20Q17.48 7.54 17.75 8.08Q18.02 8.63 18.02 9.31L18.02 9.31Q18.02 10.48 17.25 10.54L17.25 10.54L13.17 10.85ZM16.18 9.11Q16.18 8.29 15.73 7.83Q15.28 7.38 14.55 7.38Q13.82 7.38 13.44 8.06Q13.06 8.75 13.06 9.97L13.06 9.97Q14.77 9.78 16.14 9.58L16.14 9.58Q16.18 9.33 16.18 9.11L16.18 9.11ZM19.38 7.59L19.38 7.59Q18.93 7.59 18.93 7.21L18.93 7.21Q18.93 7.10 18.94 7.04L18.94 7.04Q19.18 6.87 20.11 6.71Q21.04 6.55 21.62 6.55L21.62 6.55Q21.83 7.24 21.83 8.10Q21.83 8.96 21.74 10.07Q21.66 11.17 21.66 11.62Q21.66 12.07 21.79 12.35Q21.93 12.63 22.36 12.63Q22.78 12.63 23.24 12.42Q23.69 12.21 24.40 11.65L24.40 11.65Q24.40 9.54 24.41 6.64L24.41 6.64Q25.20 6.52 25.68 6.52Q26.16 6.52 26.52 6.64L26.52 6.64Q26.41 8.14 26.41 9.52Q26.41 10.90 26.49 12.39L26.49 12.39Q26.50 12.61 26.58 12.74Q26.65 12.86 26.97 12.88Q27.29 12.90 27.41 12.95L27.41 12.95Q27.44 13.09 27.44 13.41L27.44 13.41Q26.84 13.75 26.24 13.89Q25.64 14.04 25.22 14.04Q24.81 14.04 24.65 13.73Q24.50 13.43 24.41 12.50L24.41 12.50Q22.74 14.04 21.23 14.04Q19.71 14.04 19.71 11.63L19.71 11.63L19.82 8.02Q19.82 7.79 19.68 7.69Q19.54 7.59 19.38 7.59ZM33.32 9.30L33.32 9.21Q33.32 8.05 32.79 8.05L32.79 8.05Q32.40 8.05 32.04 8.27Q31.68 8.49 31.27 8.89L31.27 8.89Q31.27 9.57 31.23 13.82L31.23 13.82Q30.47 13.95 29.99 13.95Q29.51 13.95 29.16 13.82L29.16 13.82Q29.24 12.68 29.24 9.93L29.24 9.93L29.24 8.33Q29.24 7.81 28.88 7.71L28.88 7.71Q28.64 7.64 28.22 7.60L28.22 7.60Q28.17 7.40 28.17 7.29Q28.17 7.18 28.18 7.12L28.18 7.12Q29.16 6.57 30.61 6.57L30.61 6.57Q30.85 6.57 30.97 6.58L30.97 6.58Q31.17 6.92 31.20 7.29Q31.24 7.66 31.26 7.99L31.26 7.99Q32.18 6.88 32.81 6.64L32.81 6.64Q33.11 6.52 33.44 6.52L33.44 6.52Q34.13 6.52 34.54 6.90Q34.95 7.28 34.95 8.01L34.95 8.01Q34.95 8.57 34.54 8.95L34.54 8.95Q34.14 9.32 33.56 9.32L33.56 9.32Q33.44 9.32 33.32 9.30L33.32 9.30ZM43.82 10.08L43.82 10.08Q43.82 10.98 43.50 11.76Q43.18 12.55 42.59 13.05L42.59 13.05Q41.41 14.05 39.46 14.05L39.46 14.05Q38.49 14.05 37.67 13.60Q36.85 13.14 36.37 12.31Q35.88 11.49 35.88 10.35Q35.88 9.20 36.47 8.29L36.47 8.29Q37.63 6.48 40.35 6.48L40.35 6.48Q41.71 6.48 42.75 7.42L42.75 7.42Q43.82 8.39 43.82 10.08ZM37.90 10.28Q37.90 11.45 38.58 12.33Q39.25 13.20 40.16 13.20L40.16 13.20Q41.84 13.20 41.84 10.46L41.84 10.46Q41.84 9.10 41.22 8.25Q40.60 7.40 39.63 7.40L39.63 7.40Q39.15 7.40 38.79 7.65Q38.44 7.90 38.25 8.31L38.25 8.31Q37.90 9.11 37.90 10.28ZM45.86 5.08L45.86 5.08Q45.74 4.42 44.99 4.33L44.99 4.33Q44.94 3.99 44.94 3.95Q44.94 3.90 44.95 3.85L44.95 3.85Q46.24 3.34 47.56 3.34L47.56 3.34Q47.63 3.34 47.69 3.34L47.69 3.34Q47.84 3.53 47.89 4.20Q47.93 4.87 47.93 7.33Q47.93 9.79 47.86 13.80L47.86 13.80Q47.41 13.93 46.78 13.93Q46.15 13.93 45.80 13.79L45.80 13.79Q45.92 12.87 45.92 10.29Q45.92 7.72 45.86 5.08ZM56.03 9.94L56.03 9.94L55.99 12.24Q55.99 12.27 55.99 12.30L55.99 12.30Q55.99 12.68 56.35 12.68L56.35 12.68Q56.62 12.68 56.93 12.50L56.93 12.50Q57.03 12.58 57.11 12.73Q57.20 12.88 57.21 12.96L57.21 12.96Q56.36 14.04 55.45 14.04Q54.54 14.04 54.17 13.15L54.17 13.15Q53.55 13.58 52.89 13.81Q52.24 14.04 51.77 14.04Q51.30 14.04 50.90 13.94Q50.50 13.84 50.16 13.61L50.16 13.61Q49.42 13.13 49.42 12.03L49.42 12.03Q49.42 11.44 49.75 11.00Q50.07 10.56 50.63 10.31L50.63 10.31Q51.71 9.82 53.20 9.78L53.20 9.78L53.99 9.75Q54.04 9.20 54.04 8.88L54.04 8.88Q54.04 8.16 53.76 7.79Q53.48 7.42 52.73 7.42L52.73 7.42Q52.28 7.42 52.03 7.73Q51.78 8.05 51.78 8.66L51.78 8.66Q51.78 8.74 51.55 8.86L51.55 8.86Q51.16 9.04 50.77 9.04Q50.39 9.04 50.16 8.83Q49.93 8.61 49.93 8.21Q49.93 7.81 50.22 7.46Q50.50 7.12 50.98 6.92L50.98 6.92Q51.93 6.55 53.15 6.55L53.15 6.55Q54.42 6.55 55.01 6.95L55.01 6.95Q55.54 7.31 55.77 7.97L55.77 7.97Q56.03 8.74 56.03 9.94ZM53.99 12.43L53.99 12.43Q53.90 11.93 53.90 11.56Q53.90 11.20 53.92 10.54L53.92 10.54L52.97 10.58Q52.24 10.58 51.84 10.94Q51.45 11.29 51.45 11.83Q51.45 12.36 51.68 12.59Q51.91 12.82 52.62 12.82Q53.33 12.82 53.99 12.43ZM63.96 12.32L63.96 12.32L64.03 9.71Q64.03 8.83 63.97 8.59Q63.91 8.36 63.82 8.24L63.82 8.24Q63.63 8.00 63.26 8.00Q62.89 8.00 62.63 8.09L62.63 8.09Q62.10 8.26 61.26 9.08L61.26 9.08Q61.26 9.97 61.22 13.82L61.22 13.82Q60.46 13.95 59.96 13.95Q59.45 13.95 59.10 13.82L59.10 13.82Q59.23 12.15 59.23 10.75Q59.23 9.34 59.19 8.33L59.19 8.33Q59.19 7.81 58.82 7.71L58.82 7.71Q58.59 7.64 58.17 7.60L58.17 7.60Q58.13 7.42 58.13 7.32Q58.13 7.21 58.15 7.12L58.15 7.12Q59.14 6.57 60.60 6.57L60.60 6.57Q60.84 6.57 60.96 6.58L60.96 6.58Q61.22 7.03 61.25 8.15L61.25 8.15Q62.53 6.51 64.24 6.51L64.24 6.51Q65.04 6.51 65.48 7.04Q65.93 7.58 65.99 8.50L65.99 8.50Q66.02 8.91 66.02 9.33Q66.02 9.75 65.98 10.23L65.98 10.23Q65.86 11.71 65.86 12.50L65.86 12.50Q65.86 12.67 66.12 12.77Q66.37 12.87 66.61 12.87Q66.86 12.87 66.94 12.84L66.94 12.84Q67.03 13.02 67.03 13.18Q67.03 13.33 67.01 13.38L67.01 13.38Q65.73 14.05 65.11 14.05Q64.48 14.05 64.22 13.62Q63.96 13.19 63.96 12.32ZM75.00 8.22L75.00 8.22Q75.00 9.26 73.92 9.26L73.92 9.26Q73.55 9.26 73.38 9.17Q73.22 9.08 73.22 9.07L73.22 9.07Q73.24 8.94 73.24 8.80L73.24 8.80Q73.24 8.16 72.83 7.78Q72.41 7.40 71.72 7.40Q71.02 7.40 70.59 8.00Q70.17 8.60 70.17 9.86Q70.17 11.12 70.90 12.08Q71.63 13.04 72.52 13.04L72.52 13.04Q73.29 13.04 74.07 12.42L74.07 12.42Q74.25 12.28 74.42 12.08L74.42 12.08Q74.57 12.17 74.73 12.35Q74.89 12.52 74.93 12.68L74.93 12.68Q74.61 13.11 73.96 13.51L73.96 13.51Q73.07 14.04 72.00 14.04Q70.92 14.04 70.04 13.59Q69.17 13.14 68.66 12.30Q68.15 11.46 68.15 10.38L68.15 10.38Q68.15 8.32 69.68 7.20L69.68 7.20Q70.66 6.48 72.06 6.48L72.06 6.48Q73.24 6.48 74.12 6.99L74.12 6.99Q74.51 7.23 74.75 7.55Q74.99 7.87 75.00 8.22ZM78.26 10.85Q78.46 11.86 79.13 12.48Q79.80 13.10 80.70 13.10Q81.59 13.10 82.50 12.33L82.50 12.33Q82.84 12.56 82.92 12.87L82.92 12.87Q82.29 13.60 81.06 13.91L81.06 13.91Q80.56 14.04 79.91 14.04Q79.26 14.04 78.56 13.81Q77.86 13.57 77.31 13.12Q76.76 12.67 76.44 11.93Q76.12 11.20 76.12 10.30Q76.12 9.41 76.45 8.68Q76.77 7.95 77.31 7.49L77.31 7.49Q78.44 6.51 79.90 6.51L79.90 6.51Q81.18 6.51 82.11 7.20L82.11 7.20Q82.56 7.54 82.83 8.08Q83.10 8.63 83.10 9.31L83.10 9.31Q83.10 10.48 82.33 10.54L82.33 10.54L78.26 10.85ZM81.27 9.11Q81.27 8.29 80.81 7.83Q80.36 7.38 79.63 7.38Q78.90 7.38 78.52 8.06Q78.15 8.75 78.15 9.97L78.15 9.97Q79.85 9.78 81.22 9.58L81.22 9.58Q81.27 9.33 81.27 9.11L81.27 9.11ZM89.02 9.30L89.02 9.21Q89.02 8.05 88.49 8.05L88.49 8.05Q88.10 8.05 87.75 8.27Q87.39 8.49 86.98 8.89L86.98 8.89Q86.98 9.57 86.94 13.82L86.94 13.82Q86.18 13.95 85.70 13.95Q85.22 13.95 84.87 13.82L84.87 13.82Q84.95 12.68 84.95 9.93L84.95 9.93L84.95 8.33Q84.95 7.81 84.59 7.71L84.59 7.71Q84.34 7.64 83.92 7.60L83.92 7.60Q83.88 7.40 83.88 7.29Q83.88 7.18 83.88 7.12L83.88 7.12Q84.87 6.57 86.32 6.57L86.32 6.57Q86.56 6.57 86.67 6.58L86.67 6.58Q86.87 6.92 86.91 7.29Q86.95 7.66 86.97 7.99L86.97 7.99Q87.88 6.88 88.51 6.64L88.51 6.64Q88.81 6.52 89.15 6.52L89.15 6.52Q89.83 6.52 90.24 6.90Q90.66 7.28 90.66 8.01L90.66 8.01Q90.66 8.57 90.25 8.95L90.25 8.95Q89.84 9.32 89.27 9.32L89.27 9.32Q89.15 9.32 89.02 9.30L89.02 9.30Z"></path></g><!----><!----></svg>